{"title":"Gippi_2013_HD_SCam_Rip_1Cd_MTR_Dev","uid":8462191,"size":570486784,"categoryP":"video","categoryS":"movies","magnet":"?xt=urn:btih:36d275b07e24286dbbce5a92066fb9f6dc748a36&amp;dn=Gippi_2013_HD_SCam_Rip_1Cd_MTR_Dev&amp;tr=udp%3A%2F%2Ftracker.openbittorrent.com%3A80&amp;tr=udp%3A%2F%2Fopen.demonii.com%3A1337&amp;tr=udp%3A%2F%2Ftracker.coppersurfer.tk%3A6969&amp;tr=udp%3A%2F%2Fexodus.desync.com%3A6969","seeders":0,"leechers":0,"uploader":"Devdeep","files":1,"time":1368263613,"description":"\n\n Format                                   : MPEG-PS\n File size                                : 544 MiB\n Duration                                 : 1h 28mn\n Overall bit rate mode                    : Variable\n Overall bit rate                         : 855 Kbps\n\n Video\n ID                                       : 224 (0xE0)\n Format                                   : MPEG Video\n Format version                           : Version 2\n Format profile                           : Main@Main\n Format settings, BVOP                    : Yes\n Format settings, Matrix                  : Default\n Format settings, GOP                     : M=3, N=13\n Duration                                 : 1h 28mn\n Bit rate mode                            : Variable\n Bit rate                                 : 710 Kbps\n Maximum bit rate                         : 9 672 Kbps\n Width                                    : 352 pixels\n Height                                   : 288 pixels\n Display aspect ratio                     : 4:3\n Frame rate                               : 25.000 fps\n Standard                                 : PAL\n Color space                              : YUV\n Chroma subsampling                       : 4:2:0\n Bit depth                                : 8 bits\n Scan type                                : Progressive\n Compression mode                         : Lossy\n Bits/(Pixel*Frame)                       : 0.280\n Stream size                              : 452 MiB (83%)\n[IMG]http://imageshack.us/a/img96/1820/3audio.png[/IMG]\n Audio\n ID                                       : 192 (0xC0)\n Format                                   : MPEG Audio\n Format version                           : Version 1\n Format profile                           : Layer 2\n Duration                                 : 1h 28mn\n Bit rate mode                            : Constant\n Bit rate                                 : 128 Kbps\n Channel(s)                               : 2 channels\n Sampling rate                            : 48.0 KHz\n Compression mode                         : Lossy\n Stream size                              : 81.4 MiB (15%)\n\nScreens......\n &lt;a href=&quot;\nhttp://imageshack.us/a/img824/4456/2013scamripmpegvobthumb.jpg&quot; rel=&quot;nofollow&quot; target=&quot;_NEW&quot;&gt;\nhttp://imageshack.us/a/img824/4456/2013scamripmpegvobthumb.jpg&lt;/a&gt;","torrent":{"xt":"urn:btih:36d275b07e24286dbbce5a92066fb9f6dc748a36","amp;dn":"Gippi_2013_HD_SCam_Rip_1Cd_MTR_Dev","amp;tr":["udp%3A%2F%2Ftracker.openbittorrent.com%3A80","udp%3A%2F%2Fopen.demonii.com%3A1337","udp%3A%2F%2Ftracker.coppersurfer.tk%3A6969","udp%3A%2F%2Fexodus.desync.com%3A6969"],"infoHash":"36d275b07e24286dbbce5a92066fb9f6dc748a36","infoHashBuffer":{"type":"Buffer","data":[54,210,117,176,126,36,40,109,187,206,90,146,6,111,185,246,220,116,138,54]},"announce":[],"urlList":[]}}